Coordinates
version=1
nRows=13
nColumns=36
inDegrees=yes

Units are S.I. units (second, meters, Newtons, ...)
If the header above contains a line with 'inDegrees', this indicates whether rotational values are in degrees (yes) or radians (no).

endheader
time	pelvis_tilt	pelvis_list	pelvis_rotation	pelvis_tx	pelvis_ty	pelvis_tz	hip_flexion_r	hip_adduction_r	hip_rotation_r	knee_angle_r	knee_angle_r_beta	ankle_angle_r	subtalar_angle_r	mtp_angle_r	hip_flexion_l	hip_adduction_l	hip_rotation_l	knee_angle_l	knee_angle_l_beta	ankle_angle_l	subtalar_angle_l	mtp_angle_l	lumbar_extension	lumbar_bending	lumbar_rotation	arm_flex_r	arm_add_r	arm_rot_r	elbow_flex_r	pro_sup_r	arm_flex_l	arm_add_l	arm_rot_l	elbow_flex_l	pro_sup_l
      0.00000000	      6.43782568	    -10.76568190	      3.70602867	      0.50024161	      1.03712414	      0.89086141	     14.00794080	     11.51503790	     -4.95508276	     22.72425890	      0.39661314	      6.10568273	    -11.12960621	     -7.22229839	     -7.35257110	    -15.90929618	     -0.51143138	     52.03526986	      0.90818679	      0.83807257	     -6.76552139	     -7.22229839	    -22.83976289	     17.14632431	     -1.60879735	      9.13549875	    -12.26110628	      3.31993853	     19.72073277	     83.64165543	     11.06970085	     -5.83673249	     -2.83672210	     20.71835383	     82.35990679
      0.01666670	      6.41420763	     -9.26427788	      2.27423591	      0.49673042	      1.03636464	      0.88975692	     12.92699524	     10.18410740	     -5.38929705	     23.18493725	      0.40465349	      6.61900005	    -13.63736683	     -7.22125719	     -5.33020619	    -13.62992956	      0.50991367	     54.79301283	      0.95631848	     -2.32496146	     -8.94930284	     -7.22125719	    -23.43940965	     15.68319877	     -0.42564028	     10.43967222	    -12.10702856	      3.09768332	     18.47729593	     81.52871045	     11.25150000	     -5.33317317	     -3.77293876	     20.88133410	     80.39729392
      0.03333330	      6.92432274	     -8.29779495	      2.05650982	      0.49667450	      1.03905610	      0.89013697	     11.00189152	      9.08020543	     -5.78147508	     22.72213305	      0.39657603	      7.47786677	    -13.39848378	     -7.22215795	     -3.71702370	    -12.30639079	      2.23303241	     56.53891274	      0.98679018	     -1.69010786	     -8.13240583	     -7.22215795	    -23.66037547	     14.63909319	      0.93190761	     10.80970179	    -12.16281702	      3.01638880	     17.91347260	     80.07628720	     11.84623444	     -4.67304179	     -4.36230981	     19.79946406	     79.04411381
      0.05000000	      7.02659371	     -7.72440174	      2.57121510	      0.49934485	      1.04115670	      0.89069955	      8.91104917	      8.52330571	     -6.84720413	     21.07109221	      0.36775994	      9.00182072	    -11.62262008	     -7.23100677	     -1.49442935	    -11.60416158	      3.67203799	     57.54728354	      1.00438957	     -0.61842000	     -9.36008565	     -7.23100677	    -23.80198538	     14.17388535	      1.88364253	     10.70222715	    -12.44390801	      2.70658121	     18.26729047	     79.72938262	     11.55040255	     -4.01652433	     -4.97403622	     19.35954500	     78.79337669
      0.06666670	      7.05991665	     -6.99408909	      3.22749036	      0.50011855	      1.04161686	      0.89133314	      6.80917874	      7.89543911	     -7.59121079	     19.28198743	      0.33653417	      9.92386116	     -9.78446539	     -7.26769556	      1.01854810	    -10.75837685	      4.76643611	     58.07651668	      1.01362643	      0.53573423	    -10.51685627	     -7.26769556	    -23.67148045	     13.47693700	      2.62222535	     10.20818272	    -12.54478078	      1.35235934	     19.23449895	     77.55684704	     10.67458104	     -3.40863513	     -6.20277956	     18.98782018	     77.14194083
      0.08333330	      6.99723553	     -6.17698195	      3.93528262	      0.49788328	      1.04109333	      0.89281442	      4.89528942	      7.20954942	     -8.34567404	     17.57431623	      0.30672968	     10.63423602	     -8.19344590	     -7.28299582	      3.97655906	     -9.82556034	      5.56123623	     58.35690350	      1.01852011	      1.42796174	    -11.31527847	     -7.28299582	    -23.54595336	     12.63874847	      2.88347515	      9.90791860	    -12.41276184	     -0.01356881	     20.63689583	     75.53432377	      9.29647152	     -3.06179900	     -6.88513094	     19.22297184	     75.62918691
      0.10000000	      6.71106716	     -5.36327650	      4.45586822	      0.49415460	      1.04060488	      0.89613168	      3.37854330	      6.56205028	     -8.90606251	     16.09338050	      0.28088248	     11.35151602	     -6.84490795	     -7.31309429	      7.36886626	     -8.91122816	      5.87108566	     58.39457216	      1.01917755	      1.99439595	    -11.87598529	     -7.31309429	    -23.32007201	     11.66425737	      2.92893467	      9.74957013	    -12.23570478	     -1.15921279	     22.30008038	     73.82089899	      7.75336526	     -3.13803860	     -7.32318629	     19.75596928	     74.21787243
      0.11666670	      6.40135646	     -4.59938425	      4.76772569	      0.48933011	      1.04118464	      0.89965491	      2.09276184	      5.98583324	     -9.33116446	     14.90826200	      0.26019826	     12.13834219	     -5.74956401	     -7.33358901	     10.75246870	     -8.01308321	      5.77847239	     58.01147462	      1.01249124	      2.47606205	    -12.32107610	     -7.33358901	    -23.28170097	     10.65259240	      2.93700280	      9.76588952	    -12.04947157	     -2.15165404	     24.22834287	     72.45195356	      6.29174703	     -3.36178936	     -7.44989148	     20.43646821	     73.01675536
      0.13333330	      6.10629823	     -3.96248544	      5.02571969	      0.48376984	      1.04290536	      0.90200996	      0.97991349	      5.55594796	     -9.70888475	     13.95681643	      0.24359240	     12.67141497	     -5.07939970	     -7.35179006	     13.88770401	     -7.22509067	      5.46552694	     57.03251776	      0.99540522	      2.99569490	    -12.66402658	     -7.35179006	    -23.30067722	      9.76918822	      2.89753245	      9.98613034	    -11.93543483	     -2.78332947	     26.05509320	     71.85390074	      5.13831603	     -3.66240712	     -7.26035552	     20.94486360	     72.40726078
      0.15000000	      5.87052638	     -3.39223930	      5.30825840	      0.47882461	      1.04394527	      0.90325445	     -0.09627603	      5.21073129	    -10.05109030	     13.03825138	      0.22756042	     12.84765643	     -4.78820183	     -7.35991554	     16.56818018	     -6.52518931	      5.03917243	     55.30352869	      0.96522866	      3.44423386	    -12.91631680	     -7.35991554	    -23.36337282	      8.95700101	      2.74929604	     10.35464362	    -11.86681845	     -3.03678299	     27.80563114	     72.15031117	      4.22448511	     -4.01982082	     -7.10946584	     21.44900690	     72.60913781
      0.16666670	      5.47280361	     -2.90101133	      5.53082264	      0.47493225	      1.04457526	      0.90349893	     -0.88244516	      4.91804465	    -10.25888330	     12.20788378	      0.21306777	     12.88505768	     -4.71105616	     -7.36218318	     18.97285019	     -5.95303385	      4.48639216	     52.77483109	      0.92109456	      3.91274494	    -12.89674790	     -7.36218318	    -23.16590546	      8.24971741	      2.65371659	     10.87554806	    -11.85010293	     -3.03957492	     29.12081038	     72.22936400	      3.58635792	     -4.33247286	     -7.10679796	     21.61940835	     72.61892722
      0.18333330	      5.13004181	     -2.56904928	      5.82492469	      0.47221051	      1.04536670	      0.90270862	     -1.76401970	      4.77767297	    -10.67921818	     11.25702523	      0.19647215	     12.70740335	     -4.40450852	     -7.36818990	     20.91134751	     -5.48729943	      4.06248288	     49.44642225	      0.86300287	      4.27822514	    -12.66103793	     -7.36818990	    -23.13297812	      7.81422498	      2.46797506	     11.14682597	    -12.01379942	     -2.99744111	     31.19775064	     72.53056599	      2.88357972	     -4.57713347	     -7.25751875	     22.24664626	     72.67725499
      0.20000000	      4.56109913	     -2.30561097	      6.00993991	      0.47095681	      1.04696634	      0.90216974	     -2.56926082	      4.73356524	    -10.98423377	     10.13251717	      0.17684579	     12.34139482	     -4.22411669	     -7.36783751	     22.74651495	     -4.99739461	      3.65042461	     45.53555102	      0.79474529	      4.57350122	    -12.02968566	     -7.36783751	    -22.74283492	      7.44328240	      2.41191011	     11.57654350	    -12.18460270	     -2.98987487	     32.04740630	     72.66028621	      2.34197762	     -4.71374705	     -7.35544661	     22.00470341	     72.73018050
